<svg width="14" height="14" viewBox="0 0 14 14" fill="none" xmlns="http://www.w3.org/2000/svg">
  <path
    d="M0.723381 2.97698C0.407226 2.68352 0.25 2.32029 0.25 1.8881C0.25 1.45591 0.408067 1.07669 0.723381 0.782394C1.03954 0.488942 1.4465 0.341797 1.94512 0.341797C2.44373 0.341797 2.83473 0.488942 3.15004 0.782394C3.4662 1.07585 3.62342 1.44498 3.62342 1.8881C3.62342 2.33122 3.46536 2.68352 3.15004 2.97698C2.83389 3.27043 2.4328 3.41757 1.94512 3.41757C1.45743 3.41757 1.03954 3.27043 0.723381 2.97698ZM3.35773 4.66033V13.6573H0.514855V4.66033H3.35773Z"
    fill="white" />
  <path
    d="M12.8228 5.54807C13.4425 6.22073 13.752 7.14398 13.752 8.31947V13.4973H11.0521V8.68439C11.0521 8.0916 10.8982 7.63082 10.5913 7.30289C10.2844 6.97496 9.87069 6.81016 9.35273 6.81016C8.83478 6.81016 8.42107 6.97412 8.11416 7.30289C7.80726 7.63082 7.65338 8.0916 7.65338 8.68439V13.4973H4.9375V4.63408H7.65338V5.80956C7.92834 5.41774 8.29917 5.10831 8.76499 4.88045C9.23081 4.65258 9.75465 4.53906 10.3373 4.53906C11.3749 4.53906 12.204 4.8754 12.8228 5.54722V5.54807Z"
    fill="white" />
</svg>
