<svg width="16" height="16" viewBox="0 0 16 16" fill="none" xmlns="http://www.w3.org/2000/svg">
  <path
    d="M11.7173 0.882812H4.29101C2.23937 0.882812 0.570312 2.55187 0.570312 4.60351V11.3975C0.570312 13.4491 2.23937 15.1182 4.29101 15.1182H11.7173C13.7689 15.1182 15.438 13.4491 15.438 11.3975V4.60351C15.438 2.55187 13.7689 0.882812 11.7173 0.882812ZM1.88286 4.60351C1.88286 3.27583 2.96333 2.19536 4.29101 2.19536H11.7173C13.045 2.19536 14.1254 3.27583 14.1254 4.60351V11.3975C14.1254 12.7252 13.045 13.8056 11.7173 13.8056H4.29101C2.96333 13.8056 1.88286 12.7252 1.88286 11.3975V4.60351Z"
    fill="white" />
  <path
    d="M8.00776 11.4608C9.91562 11.4608 11.4686 9.90864 11.4686 7.99994C11.4686 6.09124 9.91646 4.53906 8.00776 4.53906C6.09906 4.53906 4.54688 6.09124 4.54688 7.99994C4.54688 9.90864 6.09906 11.4608 8.00776 11.4608ZM8.00776 5.85245C9.1925 5.85245 10.1561 6.81605 10.1561 8.00079C10.1561 9.18552 9.1925 10.1491 8.00776 10.1491C6.82302 10.1491 5.85942 9.18552 5.85942 8.00079C5.85942 6.81605 6.82302 5.85245 8.00776 5.85245Z"
    fill="white" />
  <path
    d="M11.784 5.0974C12.2978 5.0974 12.7165 4.6795 12.7165 4.16491C12.7165 3.65032 12.2986 3.23242 11.784 3.23242C11.2695 3.23242 10.8516 3.65032 10.8516 4.16491C10.8516 4.6795 11.2695 5.0974 11.784 5.0974Z"
    fill="white" />
</svg>
