<svg width="21" height="24" viewBox="0 0 21 24" fill="none" xmlns="http://www.w3.org/2000/svg">
  <path
    d="M9.80115 11.4617L0.0859375 22.0059C0.08685 22.0078 0.0868499 22.0106 0.0877623 22.0125C0.386145 23.1574 1.40813 24 2.62173 24C3.10717 24 3.5625 23.8656 3.95304 23.6305L3.98407 23.6118L14.9193 17.1593L9.80115 11.4617Z"
    fill="#EA4335" />
  <path
    d="M19.6351 9.66619L19.626 9.65966L14.9048 6.86123L9.58594 11.7013L14.924 17.1582L19.6196 14.3878C20.4427 13.9324 21.002 13.045 21.002 12.0223C21.002 11.0052 20.4509 10.1225 19.6351 9.66619Z"
    fill="#FBBC04" />
  <path
    d="M0.0894234 1.99325C0.0310244 2.21346 0 2.44488 0 2.68376V21.3163C0 21.5552 0.0310245 21.7866 0.0903359 22.0059L10.1386 11.7313L0.0894234 1.99325Z"
    fill="#4285F4" />
  <path
    d="M9.87324 12L14.901 6.85945L3.97859 0.383598C3.58166 0.140054 3.11812 8.67844e-05 2.62264 8.67844e-05C1.40904 8.67844e-05 0.385232 0.84456 0.0868495 1.99043C0.0868495 1.99136 0.0859375 1.9923 0.0859375 1.99323L9.87324 12Z"
    fill="#34A853" />
</svg>